<?xml version="1.0" encoding="UTF-8"?>
<svg id="Layer_1" xmlns="http://www.w3.org/2000/svg" version="1.1" viewBox="0 0 855 275">
  <!-- Generator: Adobe Illustrator 30.4.0, SVG Export Plug-In . SVG Version: 2.1.4 Build 226)  -->
  <path d="M855,167.3v2c0,25.9-20.9,46.7-46.6,46.7h-13.8c-25.7,0-46.6-20.8-46.6-46.7v-4h27.1v4c0,10.8,8.7,19.7,19.5,19.7h13.8c10.9,0,19.7-8.9,19.7-19.7v-2c0-10.8-9.1-19.7-19.7-19.7h-19.7v-27l54.8-29.9v-5.1h-63l10.3-22.7,1.9-4.1h56.6v59.3l-16.9,9.3c14,8.2,22.6,23.7,22.6,39.8Z"/>
  <path d="M512.3,58.8v157.2h-27.5v-67.1h-53.9v67.1h-27.3V58.8h27.3v62.6h53.9v-62.6h27.5Z"/>
  <path d="M655.7,58.8v127.1c0,17.7-14.6,32.3-32.5,32.3s-28.6-11.5-31.8-26.3l-27.5-127.3h-5.2v151.3h-27.3V58.8h59l28.6,132h9.2V58.8h27.3Z"/>
  <path d="M781.7,58.8l-71.3,157.2h-34.3V58.8h27.7v109.7l-.2,5.3,2-4.6,46.8-110.5h29.2Z"/>
  <path d="M388.5,58.8v27.2h-37.4v130h-27.3V86h-34.2c-3.2-9.5-7.3-18.6-12.2-27.2h111.1Z"/>
  <path d="M137.7,0C61.8,0,0,61.7,0,137.5s61.8,137.5,137.7,137.5,137.7-61.7,137.7-137.5S213.6,0,137.7,0ZM135.9,191.5c-8.3,0-15-4.4-19.9-13.1-4.9-8.7-7.4-22.4-7.4-41s2.5-29.3,7.4-38c4.9-8.7,11.5-13,19.9-13s15,4.3,19.9,13c4.9,8.7,7.4,21.3,7.4,38s-2.5,32.3-7.4,41c-4.9,8.7-11.5,13.1-19.9,13.1ZM194.8,231.2l-1.8.6c-26.6,7.7-36.2-14.3-36.2-14.3,13.2-4.4,23.7-13.3,31.5-26.8,7.8-13.5,11.6-31.2,11.6-53.3s-1.6-25.2-4.7-35.4c-3.1-10.2-7.5-18.8-13.1-25.7-5.6-6.9-12.4-12.2-20.2-15.7-7.8-3.5-16.5-5.3-26-5.3s-18.1,1.8-26,5.3c-7.8,3.5-14.6,8.7-20.2,15.7-5.6,6.9-10,15.5-13.1,25.7-3.1,10.2-4.7,22-4.7,35.4,0,23.4,4.3,41.8,12.9,55.5,8.6,13.6,20.1,22.3,34.5,26.1,2.5,6.2,5.6,11.9,9.6,17.1,3.1,4.1,6.6,7.8,10.6,11-.6,0-1.1,0-1.7,0-60.6,0-109.8-49.1-109.8-109.7S77,27.8,137.7,27.8s109.8,49.1,109.8,109.7-21.1,74.4-52.7,93.7Z"/>
</svg>